<svg xmlns="http://www.w3.org/2000/svg" viewBox="993.7 -188.1 558.5 800"> <linearGradient id="aGradient" gradientUnits="userSpaceOnUse" x1="912.21" y1="455.024" x2="912.21" y2="988.151" gradientTransform="matrix(1 0 0 -1 360.88 799.9)"> <stop offset="0%" stop-color="#F32655" style="stop-color: rgb(243, 38, 85);"></stop> <stop offset="100%" stop-color="#FF6A00" style="stop-color: rgb(255, 106, 0);"></stop> </linearGradient> <path id="topheaderlogo" fill="url(#aGradient)" d="M1510.3-66.1l33.2-39c12.4-13.5 11.5-34.5-2-46.9l-.4-.4-30.8-27.3c-6.8-6.1-15.8-9.1-24.9-8.3-9 .6-17.3 4.8-23.2 11.6l-28.2 33.2c-47.8-30.2-103.4-45.8-160-44.8-68.5-.1-134.9 23.3-188.2 66.3-60.1 49-94.1 123.1-92 200.6-1.8 77.2 32.2 151 92 199.8 53.1 42.8 119.2 66.2 187.4 66.3 155.9 0 223-102 223-102 30.7-38.1 55.5-87 55.5-165 .1-64.5-17.3-109.3-41.4-144.1zm-72.1 145c0 114.4-85.4 155-165 155-57.2 0-165.8-32.3-165.8-155s108.6-155 165.8-155c79.6 0 165 40.6 165 155z"></path> <linearGradient id="bGradient" gradientUnits="userSpaceOnUse" x1="912.531" y1="188.024" x2="912.531" y2="454.949" gradientTransform="matrix(1 0 0 -1 360.88 799.9)"> <stop offset="0%" stop-color="#EE0979" style="stop-color: rgb(238, 9, 121);"></stop> <stop offset="100%" stop-color="#F32655" style="stop-color: rgb(243, 38, 85);"></stop> </linearGradient> <path id="bottomheaderlogo" fill="url(#bGradient)" d="M1514.5 345h-43.9c-19.9 0-31.5 2.5-34.8 29-16.6 98.7-110.3 126-162.5 126s-145.9-27.4-162.5-125.2c-3.3-26.5-15.8-28.2-34.8-29h-43.9c-36.5-1.7-38.1 21.6-36.5 32.3 6.6 65.6 39.2 125.9 90.4 167.5 52.9 42.6 118.6 66 186.5 66.3h.8c67.9-.3 133.7-23.7 186.5-66.3 51.5-41.4 84.3-101.7 91.2-167.5 1.6-10.8-.1-34-36.5-33.1z"></path> </svg>