<svg width="718" height="367" viewBox="0 0 718 367" fill="none" xmlns="http://www.w3.org/2000/svg">
<path d="M85.383 23.984V26.311C109.19 26.311 99.166 58.173 97.018 62.469C94.512 68.018 84.13 89.319 84.13 89.319L58.354 46.538C46.182 25.953 53.521 26.132 58.891 26.132V23.984H3.401V26.132C8.055 26.311 11.993 26.669 19.869 40.273C19.869 40.273 28.461 54.056 54.774 100.596V129.057C54.774 141.229 51.373 147.673 43.855 147.673V150H96.123V147.673C88.605 147.673 85.383 141.229 85.383 129.057V91.467L98.629 64.438C114.918 32.039 130.312 26.311 138.188 26.311V23.984H85.383ZM162.508 104.713C162.508 87.529 168.236 68.018 177.723 68.018C186.673 68.018 191.506 82.159 191.506 104.713H162.508ZM215.313 107.04C215.313 76.252 200.277 65.691 177.723 65.691C154.453 65.691 134.226 81.085 134.226 109.009C134.226 131.563 151.768 151.611 175.217 151.611C198.487 151.611 210.301 138.186 212.807 126.909L210.48 126.014C206.542 137.828 193.296 142.303 183.988 140.155C171.995 137.47 163.224 129.415 162.508 107.04H215.313ZM300.208 90.572C305.578 84.486 305.041 74.82 298.776 69.45C294.48 65.691 287.678 64.617 282.845 66.765C278.012 68.913 271.747 71.419 260.649 88.424V65.691L224.849 73.03V75.357C232.188 78.579 234.157 81.085 234.157 87.35V129.057C234.157 138.186 233.978 145.704 226.997 147.852V150H267.988V147.852C261.544 146.062 260.649 138.902 260.649 129.057V92.541C267.63 81.622 274.074 80.19 274.074 82.338C274.074 85.918 275.864 89.498 279.086 92.183C285.351 97.732 294.659 96.837 300.208 90.572ZM362.302 92.541C362.302 112.589 358.722 117.243 351.92 117.243C345.297 117.243 341.717 112.589 341.717 92.541C341.717 72.493 344.223 68.018 351.92 68.018C359.08 68.018 362.302 72.493 362.302 92.541ZM405.62 81.443C410.095 77.505 410.453 70.703 406.515 66.407C403.651 63.543 399.176 62.469 395.596 63.185C391.479 64.08 385.214 66.586 379.844 73.746C374.116 68.913 365.166 65.691 351.92 65.691C326.502 65.691 316.299 78.042 316.299 92.541C316.299 100.775 320.595 111.336 332.409 115.99C315.404 122.971 315.762 138.365 315.762 138.365C315.762 146.42 320.237 151.074 325.428 153.58C315.762 157.876 302.695 170.227 309.855 185.621C316.657 200.299 352.457 201.552 374.832 187.769C393.09 176.492 394.164 162.172 394.164 162.172C397.923 131.563 376.264 130.668 364.45 130.668H339.39C321.132 130.668 330.261 119.391 335.094 116.885C339.569 118.675 344.76 119.391 351.92 119.391C378.77 119.391 387.72 104.534 387.72 92.541C387.72 86.097 385.751 79.653 381.455 75.178C384.498 72.135 388.436 71.419 388.078 73.03C387.72 75.536 388.615 78.4 390.584 80.548C394.343 84.844 401.324 85.381 405.62 81.443ZM327.755 155.012C334.736 157.876 342.254 157.697 344.223 157.697H368.567C381.634 157.697 383.782 167.005 383.782 167.005C383.782 167.005 385.93 176.492 378.054 181.862C368.209 188.843 350.667 187.948 335.631 180.43C335.631 180.43 310.213 169.69 327.755 155.012ZM463.267 106.861C463.267 106.861 463.267 132.637 463.267 132.816C461.477 137.112 458.255 140.692 453.601 140.692C444.293 140.692 444.293 128.878 444.293 128.878C444.293 120.107 447.157 110.441 463.267 106.861ZM503.184 137.649C502.11 140.692 497.993 140.692 497.993 140.692C489.401 140.871 489.401 128.162 489.401 128.162V101.491C489.401 80.369 479.735 65.691 456.286 65.691C456.286 65.691 447.157 65.154 439.102 69.45C430.868 73.746 428.183 77.863 426.214 80.548C423.708 83.591 423.35 88.424 425.319 92.541C428.183 98.09 435.164 100.238 440.713 97.374C446.262 94.331 448.41 87.529 445.546 81.98C443.935 79.116 441.787 77.326 438.923 76.61C435.164 75.536 437.67 72.672 440.534 71.24C452.885 64.975 463.267 74.462 463.267 93.078V104.355C431.763 112.052 416.906 114.737 416.906 133.353C416.906 150.179 434.985 151.611 438.386 151.611C451.095 151.611 460.94 144.988 463.446 136.396C465.236 151.611 483.136 151.611 483.136 151.611C494.413 151.611 503.184 145.525 505.153 138.723L503.184 137.649ZM553.827 147.852C547.383 146.062 546.488 138.902 546.488 129.057V16.466L510.867 23.626V25.774C518.206 28.459 520.175 31.144 520.175 37.409V129.057C520.175 138.365 519.817 145.883 513.015 147.852V150H553.827V147.852ZM569.237 41.705C569.237 49.76 575.681 56.204 583.915 56.204C591.97 56.204 598.593 49.76 598.593 41.705C598.593 33.471 591.97 27.027 583.915 27.027C575.681 27.027 569.237 33.471 569.237 41.705ZM606.29 147.852C599.846 146.062 598.951 138.902 598.951 129.057V65.691L563.33 73.03V75.357C570.669 78.579 572.638 81.085 572.638 87.35V129.057C572.638 138.186 572.28 145.704 565.478 147.852V150H606.29V147.852Z" fill="url(#paint0_linear)"/>
<path d="M116.662 172.504H21.484L18.7 207.652H21.136C25.486 188.512 46.888 174.766 73.51 174.766H81.688L13.828 295H111.094L114.574 254.458H112.312C108.658 275.164 88.648 292.738 58.546 292.738H53.5L116.662 172.504ZM216.149 292.912C210.059 291.346 209.015 284.038 209.015 274.468V239.842C209.015 218.962 197.705 213.046 183.785 213.046C173.345 213.046 161.339 221.92 157.511 231.316V165.196L122.885 172.504V174.766C130.019 177.376 131.933 179.464 131.933 185.554V274.468C131.933 283.342 131.585 290.824 124.973 292.738V295H164.645V292.738C158.381 291.172 157.511 284.038 157.511 274.468V234.97C160.469 229.402 165.689 225.922 170.213 225.922C179.435 225.922 183.437 230.62 183.437 240.538V274.468C183.437 283.342 183.089 290.998 176.477 292.912V295H216.149V292.912ZM271.204 253.066C271.204 253.066 271.204 278.122 271.204 278.296C269.464 282.472 266.332 285.952 261.808 285.952C252.76 285.952 252.76 274.468 252.76 274.468C252.76 265.942 255.544 256.546 271.204 253.066ZM310.006 282.994C308.962 285.952 304.96 285.952 304.96 285.952C296.608 286.126 296.608 273.772 296.608 273.772V247.846C296.608 227.314 287.212 213.046 264.418 213.046C264.418 213.046 255.544 212.524 247.714 216.7C239.71 220.876 237.1 224.878 235.186 227.488C232.75 230.446 232.402 235.144 234.316 239.146C237.1 244.54 243.886 246.628 249.28 243.844C254.674 240.886 256.762 234.274 253.978 228.88C252.412 226.096 250.324 224.356 247.54 223.66C243.886 222.616 246.322 219.832 249.106 218.44C261.112 212.35 271.204 221.572 271.204 239.668V250.63C240.58 258.112 226.138 260.722 226.138 278.818C226.138 295.174 243.712 296.566 247.018 296.566C259.372 296.566 268.942 290.128 271.378 281.776C273.118 296.566 290.518 296.566 290.518 296.566C301.48 296.566 310.006 290.65 311.92 284.038L310.006 282.994ZM416.828 292.738C411.434 292.738 404.3 289.78 398.558 281.776C398.558 281.776 383.768 263.158 370.892 245.062C390.206 222.616 410.564 217.048 417.002 216.874V214.612H372.284V216.874C388.988 216.526 375.59 236.362 371.762 240.364L353.318 259.678C353.318 259.678 358.016 266.812 363.236 274.468C375.068 291.868 376.46 295 388.466 295H416.828V292.738ZM357.146 292.912C350.882 291.172 350.012 284.212 350.012 274.642V165.196L315.386 172.156V174.244C322.52 176.854 324.434 179.464 324.434 185.554V274.642C324.434 283.69 324.086 290.998 317.474 292.912V295H357.146V292.912ZM514.362 292.912C508.272 291.346 507.228 284.038 507.228 274.468V239.842C507.228 218.962 495.918 213.046 481.998 213.046C471.558 213.046 459.552 221.92 455.724 231.316V165.196L421.098 172.504V174.766C428.232 177.376 430.146 179.464 430.146 185.554V274.468C430.146 283.342 429.798 290.824 423.186 292.738V295H462.858V292.738C456.594 291.172 455.724 284.038 455.724 274.468V234.97C458.682 229.402 463.902 225.922 468.426 225.922C477.648 225.922 481.65 230.62 481.65 240.538V274.468C481.65 283.342 481.302 290.998 474.69 292.912V295H514.362V292.912ZM569.417 253.066C569.417 253.066 569.417 278.122 569.417 278.296C567.677 282.472 564.545 285.952 560.021 285.952C550.973 285.952 550.973 274.468 550.973 274.468C550.973 265.942 553.757 256.546 569.417 253.066ZM608.219 282.994C607.175 285.952 603.173 285.952 603.173 285.952C594.821 286.126 594.821 273.772 594.821 273.772V247.846C594.821 227.314 585.425 213.046 562.631 213.046C562.631 213.046 553.757 212.524 545.927 216.7C537.923 220.876 535.313 224.878 533.399 227.488C530.963 230.446 530.615 235.144 532.529 239.146C535.313 244.54 542.099 246.628 547.493 243.844C552.887 240.886 554.975 234.274 552.191 228.88C550.625 226.096 548.537 224.356 545.753 223.66C542.099 222.616 544.535 219.832 547.319 218.44C559.325 212.35 569.417 221.572 569.417 239.668V250.63C538.793 258.112 524.351 260.722 524.351 278.818C524.351 295.174 541.925 296.566 545.231 296.566C557.585 296.566 567.155 290.128 569.591 281.776C571.331 296.566 588.731 296.566 588.731 296.566C599.693 296.566 608.219 290.65 610.133 284.038L608.219 282.994ZM706.515 292.912C700.251 291.346 699.381 284.038 699.381 274.468V239.494C699.381 218.614 687.897 213.046 674.151 213.046C663.885 213.046 652.401 220.876 648.225 230.794V213.046L613.599 220.18V222.442C620.733 225.574 622.473 227.836 622.473 233.926V274.816C622.473 283.69 622.299 290.998 615.687 292.912V295H655.359V292.912C649.095 291.172 648.225 284.386 648.225 274.816V236.188C649.443 230.794 655.359 225.574 660.753 225.574C669.279 225.574 673.803 230.968 673.803 240.19V274.468C673.803 283.342 673.455 290.998 666.843 292.912V295H706.515V292.912Z" fill="url(#paint1_linear)"/>
<defs>
<linearGradient id="paint0_linear" x1="309.5" y1="0" x2="309.5" y2="215" gradientUnits="userSpaceOnUse">
<stop offset="0.015625" stop-color="#F63443"/>
<stop offset="0.229167" stop-color="#F73C3A"/>
<stop offset="0.645833" stop-color="#FB5020"/>
<stop offset="1" stop-color="#FF6A00"/>
</linearGradient>
<linearGradient id="paint1_linear" x1="364" y1="150" x2="364" y2="367" gradientUnits="userSpaceOnUse">
<stop offset="0.0795034" stop-color="#EE0A78"/>
<stop offset="0.286458" stop-color="#EF116F"/>
<stop offset="0.640625" stop-color="#F32655"/>
<stop offset="0.989583" stop-color="#F84034"/>
</linearGradient>
</defs>
</svg>
